<?xml version="1.0" encoding="UTF-8"?>
<svg width="484px" height="141px" viewBox="0 0 484 141" version="1.1" xmlns="http://www.w3.org/2000/svg" xmlns:xlink="http://www.w3.org/1999/xlink">
    <title>ASOS-logo</title>
    <g id="ASOS-logo" stroke="none" stroke-width="1" fill="none" fill-rule="evenodd">
        <path d="M450.781769,102.898897 C450.781769,88.6433824 434.691689,85.5330882 411.335121,80.3492647 C397.840214,77.2389706 386.680965,72.0551471 379.933512,63.5018382 C380.193029,65.8345588 380.193029,68.1672794 380.193029,70.5 C380.193029,79.5716912 378.635925,88.125 375.521716,95.9007353 L403.809115,95.9007353 C403.809115,109.119485 415.227882,119.227941 429.50134,119.227941 C440.66059,119.227941 450.781769,113.784926 450.781769,102.898897 M349.569973,70.5 C349.569973,48.46875 335.556032,26.4375 310.382842,26.4375 C284.950134,26.4375 270.676676,48.46875 270.676676,70.5 C270.676676,100.047794 290.659517,114.821691 310.123324,114.821691 C330.106166,114.821691 349.569973,100.047794 349.569973,70.5 M240.572654,77.2389706 C240.313137,74.90625 240.313137,72.8327206 240.313137,70.5 C240.313137,61.4283088 241.870241,52.875 244.98445,45.0992647 L216.956568,45.0992647 C216.956568,32.1397059 205.278284,21.7720588 190.745308,21.7720588 C179.845576,21.7720588 169.724397,27.4742647 169.724397,38.1011029 C169.724397,51.5790441 187.112064,55.7261029 205.278284,59.6139706 C220.589812,62.7242647 233.046649,67.9080882 240.572654,77.2389706 M214.620912,102.898897 C214.620912,88.6433824 198.530831,85.5330882 175.174263,80.3492647 C157.26756,76.2022059 143.513137,68.4264706 138.582306,54.1709559 L138.582306,95.9007353 L167.648257,95.9007353 C167.648257,109.119485 179.067024,119.227941 193.340483,119.227941 C204.499732,119.227941 214.620912,113.784926 214.620912,102.898897 M109.256836,70.5 C109.256836,48.46875 95.2428954,26.4375 69.8101877,26.4375 C44.8965147,26.4375 30.6230563,48.46875 30.6230563,70.5 C30.6230563,100.047794 50.0868633,114.821691 70.0697051,114.821691 C89.5335121,114.821691 109.256836,100.047794 109.256836,70.5 M484,99.7886029 C484,128.040441 461.162466,140.740809 428.203753,140.740809 C398.618767,140.740809 376.819303,125.966912 373.445576,100.825368 C362.02681,124.670956 337.632172,141 310.123324,141 C283.133512,141 259.257909,125.448529 247.839142,102.380515 C246.541555,128.818015 223.963539,140.740809 192.042895,140.740809 C165.312601,140.740809 144.551206,128.558824 138.582306,107.564338 L138.582306,137.371324 L109.256836,137.371324 L109.256836,128.558824 C97.5785523,136.59375 84.3431635,141 69.5506702,141 C31.4016086,141 0,109.637868 0,70.5 C0,31.1029412 31.4016086,0 69.5506702,0 C89.5335121,0 98.3571046,5.96139706 109.256836,12.7003676 L109.256836,3.62867647 L138.582306,3.62867647 L138.582306,27.7334559 C145.070241,8.55330882 166.35067,0.259191176 192.042895,0.259191176 C221.627882,0.259191176 244.205898,15.0330882 247.320107,39.9154412 C258.738874,16.0698529 283.133512,0 310.382842,0 C337.372654,0 360.98874,15.8106618 372.667024,38.8786765 C373.964611,11.6636029 397.840214,0.259191176 428.203753,0.259191176 C459.864879,0.259191176 483.221448,17.1066176 483.740483,45.0992647 L453.117426,45.0992647 C453.117426,32.1397059 441.439142,21.7720588 426.906166,21.7720588 C416.006434,21.7720588 405.885255,27.4742647 405.885255,38.1011029 C405.885255,51.5790441 423.272922,55.7261029 441.439142,59.6139706 C466.093298,64.7977941 484,74.90625 484,99.7886029" id="Fill-1" fill="#FFFFFF"></path>
    </g>
</svg>